<?xml version="1.0" encoding="UTF-8"?><svg xmlns="http://www.w3.org/2000/svg" xmlns:xlink="http://www.w3.org/1999/xlink" fill-opacity="1" color-rendering="auto" color-interpolation="auto" text-rendering="auto" stroke="black" stroke-linecap="square" width="1514" stroke-miterlimit="10" shape-rendering="auto" stroke-opacity="1" fill="black" stroke-dasharray="none" font-weight="normal" stroke-width="1" height="384" font-family="'Dialog'" font-style="normal" stroke-linejoin="miter" font-size="12px" stroke-dashoffset="0" image-rendering="auto">
  <!--Generated by ySVG 2.6-->
  <defs id="genericDefs"/>
  <g>
    <defs id="defs1">
      <clipPath clipPathUnits="userSpaceOnUse" id="clipPath1">
        <path d="M0 0 L1514 0 L1514 384 L0 384 L0 0 Z"/>
      </clipPath>
      <clipPath clipPathUnits="userSpaceOnUse" id="clipPath2">
        <path d="M559 490 L1316 490 L1316 682 L559 682 L559 490 Z"/>
      </clipPath>
    </defs>
    <g fill="white" text-rendering="geometricPrecision" shape-rendering="geometricPrecision" transform="scale(2,2) translate(-559,-490)" stroke="white">
      <rect x="559" width="757" height="192" y="490" clip-path="url(#clipPath2)" stroke="none"/>
    </g>
    <g text-rendering="geometricPrecision" stroke-miterlimit="1.45" shape-rendering="geometricPrecision" transform="matrix(2,0,0,2,-1118,-980)" stroke-linecap="butt">
      <path fill="none" d="M1105.188 652.4777 L1105.188 669.5094 L616.7614 669.5094 L616.7614 660.4777" clip-path="url(#clipPath2)"/>
      <path d="M616.7614 652.4777 L611.7614 664.4777 L616.7614 661.4777 L621.7614 664.4777 Z" clip-path="url(#clipPath2)" stroke="none"/>
      <rect x="838.6338" y="660.1588" clip-path="url(#clipPath2)" fill="white" width="44.6816" height="18.7012" stroke="none"/>
      <text x="840.6339" xml:space="preserve" y="674.2233" clip-path="url(#clipPath2)" font-family="sans-serif" stroke="none">existsIn</text>
      <path fill="none" d="M756.6371 634.9738 L678.7515 634.9738" clip-path="url(#clipPath2)"/>
      <path d="M670.7515 634.9738 L682.7515 639.9738 L679.7515 634.9738 L682.7515 629.9738 Z" clip-path="url(#clipPath2)" stroke="none"/>
      <text x="676.0227" xml:space="preserve" y="628.337" clip-path="url(#clipPath2)" font-family="sans-serif" stroke="none">pointInTimeOf</text>
      <path fill="none" d="M616.7614 617.4686 L616.7614 598.3172" clip-path="url(#clipPath2)"/>
      <path d="M616.7614 590.3172 L611.7614 602.3172 L616.7614 599.3172 L621.7614 602.3172 Z" clip-path="url(#clipPath2)" stroke="none"/>
      <text x="622.7614" xml:space="preserve" y="608.6212" clip-path="url(#clipPath2)" font-family="sans-serif" stroke="none">partOf</text>
      <path fill="none" d="M756.6371 572.8409 L678.7515 572.8409" clip-path="url(#clipPath2)"/>
      <path d="M670.7515 572.8409 L682.7515 577.8409 L679.7515 572.8409 L682.7515 567.8409 Z" clip-path="url(#clipPath2)" stroke="none"/>
      <text x="676.0227" xml:space="preserve" y="566.2042" clip-path="url(#clipPath2)" font-family="sans-serif" stroke="none">pointInTimeOf</text>
      <path fill="none" d="M854.1473 617.4686 L854.1473 605.3172" clip-path="url(#clipPath2)"/>
      <path fill="white" d="M854.1473 590.3172 L848.1473 606.3172 L860.1473 606.3172 Z" clip-path="url(#clipPath2)" stroke="none"/>
      <path fill="none" d="M854.1473 590.3172 L848.1473 606.3172 L860.1473 606.3172 Z" clip-path="url(#clipPath2)"/>
      <path fill="none" d="M1043.6842 572.8409 L959.6459 572.8409" clip-path="url(#clipPath2)"/>
      <path d="M951.6459 572.8409 L963.6459 577.8409 L960.6459 572.8409 L963.6459 567.8409 Z" clip-path="url(#clipPath2)" stroke="none"/>
      <text x="955.9811" xml:space="preserve" y="566.2042" clip-path="url(#clipPath2)" font-family="sans-serif" stroke="none">hasPointInTime</text>
      <path fill="none" d="M1166.653 634.9738 L1209.5259 634.9738" clip-path="url(#clipPath2)"/>
      <path d="M1217.5259 634.9738 L1205.5259 629.9738 L1208.5259 634.9738 L1205.5259 639.9738 Z" clip-path="url(#clipPath2)" stroke="none"/>
      <text x="1173.1013" xml:space="preserve" y="628.337" clip-path="url(#clipPath2)" font-family="sans-serif" stroke="none">causes</text>
      <path fill="none" d="M1105.188 617.4686 L1105.188 605.3172" clip-path="url(#clipPath2)"/>
      <path fill="white" d="M1105.188 590.3172 L1099.188 606.3172 L1111.188 606.3172 Z" clip-path="url(#clipPath2)" stroke="none"/>
      <path fill="none" d="M1105.188 590.3172 L1099.188 606.3172 L1111.188 606.3172 Z" clip-path="url(#clipPath2)"/>
      <path fill="none" d="M1166.653 572.8409 L1209.5259 572.8409" clip-path="url(#clipPath2)"/>
      <path d="M1217.5259 572.8409 L1205.5259 567.8409 L1208.5259 572.8409 L1205.5259 577.8409 Z" clip-path="url(#clipPath2)" stroke="none"/>
      <text x="1171.4343" xml:space="preserve" y="566.2042" clip-path="url(#clipPath2)" font-family="sans-serif" stroke="none">hasPart</text>
      <path fill="none" d="M1043.6842 634.9738 L959.6459 634.9738" clip-path="url(#clipPath2)"/>
      <path d="M951.6459 634.9738 L963.6459 639.9738 L960.6459 634.9738 L963.6459 629.9738 Z" clip-path="url(#clipPath2)" stroke="none"/>
      <text x="955.9811" xml:space="preserve" y="628.337" clip-path="url(#clipPath2)" font-family="sans-serif" stroke="none">hasPointInTime</text>
      <path fill="none" d="M711.9248 521.352 L764.4242 521.352" clip-path="url(#clipPath2)"/>
      <path fill="white" d="M779.4242 521.352 L763.4242 515.352 L763.4242 527.352 Z" clip-path="url(#clipPath2)" stroke="none"/>
      <path fill="none" d="M779.4242 521.352 L763.4242 515.352 L763.4242 527.352 Z" clip-path="url(#clipPath2)"/>
      <text x="714.6568" xml:space="preserve" y="514.7153" clip-path="url(#clipPath2)" font-family="sans-serif" stroke="none">subClassOf</text>
      <path fill="none" d="M795.824 521.352 L863.9246 521.352" clip-path="url(#clipPath2)"/>
      <path d="M871.9246 521.352 L859.9246 516.352 L862.9246 521.352 L859.9246 526.352 Z" clip-path="url(#clipPath2)" stroke="none"/>
      <text x="798.178" xml:space="preserve" y="514.7153" clip-path="url(#clipPath2)" font-family="sans-serif" stroke="none">otherRelation</text>
    </g>
    <g fill="rgb(150,150,150)" text-rendering="geometricPrecision" shape-rendering="geometricPrecision" transform="matrix(2,0,0,2,-1118,-980)" stroke="rgb(150,150,150)">
      <rect x="562.7613" y="617.4737" clip-path="url(#clipPath2)" width="108" rx="4" ry="4" height="15" stroke="none"/>
    </g>
    <g stroke-linecap="butt" transform="matrix(2,0,0,2,-1118,-980)" fill="white" text-rendering="geometricPrecision" font-family="sans-serif" shape-rendering="geometricPrecision" stroke="white" font-weight="bold" stroke-miterlimit="1.45">
      <text x="593.4117" xml:space="preserve" y="629.6876" clip-path="url(#clipPath2)" stroke="none">Process</text>
    </g>
    <g stroke-linecap="butt" transform="matrix(2,0,0,2,-1118,-980)" fill="rgb(150,150,150)" text-rendering="geometricPrecision" shape-rendering="geometricPrecision" stroke="rgb(150,150,150)" stroke-miterlimit="1.45">
      <rect x="562.7613" y="617.4737" clip-path="url(#clipPath2)" fill="none" width="108" rx="4" ry="4" height="15"/>
      <rect stroke-linecap="square" x="1043.688" y="617.4737" clip-path="url(#clipPath2)" width="123" rx="4" ry="4" height="15" stroke="none" stroke-miterlimit="10"/>
    </g>
    <g stroke-linecap="butt" transform="matrix(2,0,0,2,-1118,-980)" fill="white" text-rendering="geometricPrecision" font-family="sans-serif" shape-rendering="geometricPrecision" stroke="white" font-weight="bold" stroke-miterlimit="1.45">
      <text x="1079.5239" xml:space="preserve" y="629.6876" clip-path="url(#clipPath2)" stroke="none">Situation</text>
    </g>
    <g stroke-linecap="butt" transform="matrix(2,0,0,2,-1118,-980)" fill="rgb(150,150,150)" text-rendering="geometricPrecision" shape-rendering="geometricPrecision" stroke="rgb(150,150,150)" stroke-miterlimit="1.45">
      <rect x="1043.688" y="617.4737" clip-path="url(#clipPath2)" fill="none" width="123" rx="4" ry="4" height="15"/>
    </g>
    <g stroke-linecap="butt" transform="matrix(2,0,0,2,-1118,-980)" text-rendering="geometricPrecision" font-family="sans-serif" shape-rendering="geometricPrecision" font-weight="bold" stroke-miterlimit="1.45">
      <text x="567.0768" xml:space="preserve" y="647.837" clip-path="url(#clipPath2)" stroke="none">Treatment_phase</text>
    </g>
    <g stroke-linecap="butt" transform="matrix(2,0,0,2,-1118,-980)" fill="rgb(150,150,150)" text-rendering="geometricPrecision" shape-rendering="geometricPrecision" stroke="rgb(150,150,150)" stroke-miterlimit="1.45">
      <rect x="562.7613" y="617.4737" clip-path="url(#clipPath2)" fill="none" width="108" rx="4" ry="4" height="35"/>
    </g>
    <g stroke-linecap="butt" transform="matrix(2,0,0,2,-1118,-980)" text-rendering="geometricPrecision" font-family="sans-serif" shape-rendering="geometricPrecision" font-weight="bold" stroke-miterlimit="1.45">
      <text x="587.7545" xml:space="preserve" y="585.7042" clip-path="url(#clipPath2)" stroke="none">Treatment</text>
    </g>
    <g stroke-linecap="butt" transform="matrix(2,0,0,2,-1118,-980)" fill="rgb(150,150,150)" text-rendering="geometricPrecision" shape-rendering="geometricPrecision" stroke="rgb(150,150,150)" stroke-miterlimit="1.45">
      <rect x="562.7613" y="555.3409" clip-path="url(#clipPath2)" fill="none" width="108" rx="4" ry="4" height="35"/>
    </g>
    <g stroke-linecap="butt" transform="matrix(2,0,0,2,-1118,-980)" text-rendering="geometricPrecision" font-family="sans-serif" shape-rendering="geometricPrecision" font-weight="bold" stroke-miterlimit="1.45">
      <text x="775.1307" xml:space="preserve" y="585.7042" clip-path="url(#clipPath2)" stroke="none">Point_in_time_of_treatment</text>
    </g>
    <g stroke-linecap="butt" transform="matrix(2,0,0,2,-1118,-980)" fill="rgb(150,150,150)" text-rendering="geometricPrecision" shape-rendering="geometricPrecision" stroke="rgb(150,150,150)" stroke-miterlimit="1.45">
      <rect x="756.6473" y="555.3409" clip-path="url(#clipPath2)" fill="none" width="195" rx="4" ry="4" height="35"/>
      <rect stroke-linecap="square" x="1217.536" y="555.3409" clip-path="url(#clipPath2)" width="95" rx="4" ry="4" height="15" stroke="none" stroke-miterlimit="10"/>
    </g>
    <g stroke-linecap="butt" transform="matrix(2,0,0,2,-1118,-980)" fill="white" text-rendering="geometricPrecision" font-family="sans-serif" shape-rendering="geometricPrecision" stroke="white" font-weight="bold" stroke-miterlimit="1.45">
      <text x="1235.036" xml:space="preserve" y="567.5548" clip-path="url(#clipPath2)" stroke="none">Attributive</text>
    </g>
    <g stroke-linecap="butt" transform="matrix(2,0,0,2,-1118,-980)" fill="rgb(150,150,150)" text-rendering="geometricPrecision" shape-rendering="geometricPrecision" stroke="rgb(150,150,150)" stroke-miterlimit="1.45">
      <rect x="1217.536" y="555.3409" clip-path="url(#clipPath2)" fill="none" width="95" rx="4" ry="4" height="15"/>
      <rect stroke-linecap="square" x="1217.536" y="617.4737" clip-path="url(#clipPath2)" width="95" rx="4" ry="4" height="15" stroke="none" stroke-miterlimit="10"/>
    </g>
    <g stroke-linecap="butt" transform="matrix(2,0,0,2,-1118,-980)" fill="white" text-rendering="geometricPrecision" font-family="sans-serif" shape-rendering="geometricPrecision" stroke="white" font-weight="bold" stroke-miterlimit="1.45">
      <text x="1248.6971" xml:space="preserve" y="629.6876" clip-path="url(#clipPath2)" stroke="none">Event</text>
    </g>
    <g stroke-linecap="butt" transform="matrix(2,0,0,2,-1118,-980)" fill="rgb(150,150,150)" text-rendering="geometricPrecision" shape-rendering="geometricPrecision" stroke="rgb(150,150,150)" stroke-miterlimit="1.45">
      <rect x="1217.536" y="617.4737" clip-path="url(#clipPath2)" fill="none" width="95" rx="4" ry="4" height="15"/>
    </g>
    <g stroke-linecap="butt" transform="matrix(2,0,0,2,-1118,-980)" text-rendering="geometricPrecision" font-family="sans-serif" shape-rendering="geometricPrecision" font-weight="bold" stroke-miterlimit="1.45">
      <text x="1222.3446" xml:space="preserve" y="647.837" clip-path="url(#clipPath2)" stroke="none">Adverse_event</text>
    </g>
    <g stroke-linecap="butt" transform="matrix(2,0,0,2,-1118,-980)" fill="rgb(150,150,150)" text-rendering="geometricPrecision" shape-rendering="geometricPrecision" stroke="rgb(150,150,150)" stroke-miterlimit="1.45">
      <rect x="1217.536" y="617.4737" clip-path="url(#clipPath2)" fill="none" width="95" rx="4" ry="4" height="35"/>
    </g>
    <g stroke-linecap="butt" transform="matrix(2,0,0,2,-1118,-980)" text-rendering="geometricPrecision" font-family="sans-serif" shape-rendering="geometricPrecision" font-weight="bold" stroke-miterlimit="1.45">
      <text x="1047.8452" xml:space="preserve" y="585.7042" clip-path="url(#clipPath2)" stroke="none">Treatment_situation</text>
    </g>
    <g stroke-linecap="butt" transform="matrix(2,0,0,2,-1118,-980)" fill="rgb(150,150,150)" text-rendering="geometricPrecision" shape-rendering="geometricPrecision" stroke="rgb(150,150,150)" stroke-miterlimit="1.45">
      <rect x="1043.688" y="555.3409" clip-path="url(#clipPath2)" fill="none" width="123" rx="4" ry="4" height="35"/>
    </g>
    <g stroke-linecap="butt" transform="matrix(2,0,0,2,-1118,-980)" text-rendering="geometricPrecision" font-family="sans-serif" shape-rendering="geometricPrecision" font-weight="bold" stroke-miterlimit="1.45">
      <text x="1064.1782" xml:space="preserve" y="647.837" clip-path="url(#clipPath2)" stroke="none">Risk_situation</text>
    </g>
    <g stroke-linecap="butt" transform="matrix(2,0,0,2,-1118,-980)" fill="rgb(150,150,150)" text-rendering="geometricPrecision" shape-rendering="geometricPrecision" stroke="rgb(150,150,150)" stroke-miterlimit="1.45">
      <rect x="1043.688" y="617.4737" clip-path="url(#clipPath2)" fill="none" width="123" rx="4" ry="4" height="35"/>
    </g>
    <g stroke-linecap="butt" transform="matrix(2,0,0,2,-1118,-980)" text-rendering="geometricPrecision" font-family="sans-serif" shape-rendering="geometricPrecision" font-weight="bold" stroke-miterlimit="1.45">
      <text x="1255.0341" xml:space="preserve" y="585.7042" clip-path="url(#clipPath2)" stroke="none">KPI</text>
    </g>
    <g stroke-linecap="butt" transform="matrix(2,0,0,2,-1118,-980)" fill="rgb(150,150,150)" text-rendering="geometricPrecision" shape-rendering="geometricPrecision" stroke="rgb(150,150,150)" stroke-miterlimit="1.45">
      <rect x="1217.536" y="555.3409" clip-path="url(#clipPath2)" fill="none" width="95" rx="4" ry="4" height="35"/>
      <rect stroke-linecap="square" x="756.6473" y="555.3409" clip-path="url(#clipPath2)" width="195" rx="4" ry="4" height="15" stroke="none" stroke-miterlimit="10"/>
    </g>
    <g stroke-linecap="butt" transform="matrix(2,0,0,2,-1118,-980)" fill="white" text-rendering="geometricPrecision" font-family="sans-serif" shape-rendering="geometricPrecision" stroke="white" font-weight="bold" stroke-miterlimit="1.45">
      <text x="812.1415" xml:space="preserve" y="567.5548" clip-path="url(#clipPath2)" stroke="none">TimeBoundary</text>
    </g>
    <g stroke-linecap="butt" transform="matrix(2,0,0,2,-1118,-980)" fill="rgb(150,150,150)" text-rendering="geometricPrecision" shape-rendering="geometricPrecision" stroke="rgb(150,150,150)" stroke-miterlimit="1.45">
      <rect x="756.6473" y="555.3409" clip-path="url(#clipPath2)" fill="none" width="195" rx="4" ry="4" height="15"/>
    </g>
    <g stroke-linecap="butt" transform="matrix(2,0,0,2,-1118,-980)" text-rendering="geometricPrecision" font-family="sans-serif" shape-rendering="geometricPrecision" font-weight="bold" stroke-miterlimit="1.45">
      <text x="761.7889" xml:space="preserve" y="647.837" clip-path="url(#clipPath2)" stroke="none">Point_in_time_of_risk_detection</text>
    </g>
    <g stroke-linecap="butt" transform="matrix(2,0,0,2,-1118,-980)" fill="rgb(150,150,150)" text-rendering="geometricPrecision" shape-rendering="geometricPrecision" stroke="rgb(150,150,150)" stroke-miterlimit="1.45">
      <rect x="756.6473" y="617.4737" clip-path="url(#clipPath2)" fill="none" width="195" rx="4" ry="4" height="35"/>
      <rect stroke-linecap="square" x="562.7613" y="555.3409" clip-path="url(#clipPath2)" width="108" rx="4" ry="4" height="15" stroke="none" stroke-miterlimit="10"/>
    </g>
    <g stroke-linecap="butt" transform="matrix(2,0,0,2,-1118,-980)" fill="white" text-rendering="geometricPrecision" font-family="sans-serif" shape-rendering="geometricPrecision" stroke="white" font-weight="bold" stroke-miterlimit="1.45">
      <text x="593.4117" xml:space="preserve" y="567.5548" clip-path="url(#clipPath2)" stroke="none">Process</text>
    </g>
    <g stroke-linecap="butt" transform="matrix(2,0,0,2,-1118,-980)" fill="rgb(150,150,150)" text-rendering="geometricPrecision" shape-rendering="geometricPrecision" stroke="rgb(150,150,150)" stroke-miterlimit="1.45">
      <rect x="562.7613" y="555.3409" clip-path="url(#clipPath2)" fill="none" width="108" rx="4" ry="4" height="15"/>
      <rect stroke-linecap="square" x="756.6473" y="617.4737" clip-path="url(#clipPath2)" width="195" rx="4" ry="4" height="15" stroke="none" stroke-miterlimit="10"/>
    </g>
    <g stroke-linecap="butt" transform="matrix(2,0,0,2,-1118,-980)" fill="white" text-rendering="geometricPrecision" font-family="sans-serif" shape-rendering="geometricPrecision" stroke="white" font-weight="bold" stroke-miterlimit="1.45">
      <text x="812.1415" xml:space="preserve" y="629.6876" clip-path="url(#clipPath2)" stroke="none">TimeBoundary</text>
    </g>
    <g stroke-linecap="butt" transform="matrix(2,0,0,2,-1118,-980)" fill="rgb(150,150,150)" text-rendering="geometricPrecision" shape-rendering="geometricPrecision" stroke="rgb(150,150,150)" stroke-miterlimit="1.45">
      <rect x="756.6473" y="617.4737" clip-path="url(#clipPath2)" fill="none" width="195" rx="4" ry="4" height="15"/>
      <rect stroke-linecap="square" x="1043.688" y="555.3409" clip-path="url(#clipPath2)" width="123" rx="4" ry="4" height="15" stroke="none" stroke-miterlimit="10"/>
    </g>
    <g stroke-linecap="butt" transform="matrix(2,0,0,2,-1118,-980)" fill="white" text-rendering="geometricPrecision" font-family="sans-serif" shape-rendering="geometricPrecision" stroke="white" font-weight="bold" stroke-miterlimit="1.45">
      <text x="1079.5239" xml:space="preserve" y="567.5548" clip-path="url(#clipPath2)" stroke="none">Situation</text>
    </g>
    <g stroke-linecap="butt" transform="matrix(2,0,0,2,-1118,-980)" fill="rgb(150,150,150)" text-rendering="geometricPrecision" shape-rendering="geometricPrecision" stroke="rgb(150,150,150)" stroke-miterlimit="1.45">
      <rect x="1043.688" y="555.3409" clip-path="url(#clipPath2)" fill="none" width="123" rx="4" ry="4" height="15"/>
      <rect x="562.7613" y="493.672" clip-path="url(#clipPath2)" fill="none" width="316.22" stroke-dasharray="6,2" height="47.56" stroke="black"/>
    </g>
    <g fill="white" text-rendering="geometricPrecision" shape-rendering="geometricPrecision" transform="matrix(2,0,0,2,-1118,-980)" stroke="white">
      <rect x="568.5213" y="499.832" clip-path="url(#clipPath2)" width="130.2" rx="4" ry="4" height="35" stroke="none"/>
    </g>
    <g stroke-linecap="butt" transform="matrix(2,0,0,2,-1118,-980)" text-rendering="geometricPrecision" font-family="sans-serif" shape-rendering="geometricPrecision" font-weight="bold" stroke-miterlimit="1.45">
      <text x="606.2727" xml:space="preserve" y="530.1953" clip-path="url(#clipPath2)" stroke="none">RIO class</text>
    </g>
    <g stroke-linecap="butt" transform="matrix(2,0,0,2,-1118,-980)" fill="rgb(150,150,150)" text-rendering="geometricPrecision" shape-rendering="geometricPrecision" stroke="rgb(150,150,150)" stroke-miterlimit="1.45">
      <rect x="568.5213" y="499.832" clip-path="url(#clipPath2)" fill="none" width="130.2" rx="4" ry="4" height="35"/>
      <rect stroke-linecap="square" x="568.5213" y="499.832" clip-path="url(#clipPath2)" width="130.2" rx="4" ry="4" height="15" stroke="none" stroke-miterlimit="10"/>
    </g>
    <g stroke-linecap="butt" transform="matrix(2,0,0,2,-1118,-980)" fill="white" text-rendering="geometricPrecision" font-family="sans-serif" shape-rendering="geometricPrecision" stroke="white" font-weight="bold" stroke-miterlimit="1.45">
      <text x="572.9417" xml:space="preserve" y="512.0458" clip-path="url(#clipPath2)" stroke="none">GFO-light superclass</text>
    </g>
    <g stroke-linecap="butt" transform="matrix(2,0,0,2,-1118,-980)" fill="rgb(150,150,150)" text-rendering="geometricPrecision" shape-rendering="geometricPrecision" stroke="rgb(150,150,150)" stroke-miterlimit="1.45">
      <rect x="568.5213" y="499.832" clip-path="url(#clipPath2)" fill="none" width="130.2" rx="4" ry="4" height="15"/>
    </g>
  </g>
</svg>
